<?xml version="1.0" ?><svg data-name="Layer 1" id="Layer_1" viewBox="0 0 512 512" xmlns="http://www.w3.org/2000/svg"><defs><style>.cls-1{fill:#061634;}.cls-2{fill:#54afff;}</style></defs><rect class="cls-1" height="419.17" rx="96.06" width="432" x="40" y="46.42"/><rect class="cls-1" height="379.17" rx="76.06" width="392" x="60" y="66.42"/><path class="cls-2" d="M159.09,166.71c0-1.53.26-2,1.53-2,10.41-.25,30.48-.76,49.79-.76,51.31,0,69.09,28.45,69.09,56.14,0,41.16-31.75,58.68-70.87,58.68H194.15v50c0,1.27-.51,2-2,2H160.87c-1.27,0-1.78-.76-1.78-2Zm35.06,80.78c4.32.25,7.11.25,14.23.25,20.06,0,36.07-6.1,36.07-26.93,0-16-10.93-26.16-33-26.16-8.13,0-15,.25-17.27.51Z"/><path class="cls-2" d="M296.52,234c-1.27-.25-1.78-.76-1.78-2V206.33a1.6,1.6,0,0,1,1.78-1.77h15v-4.07c0-11.94,2-20.83,5.59-28.45,6.61-14.23,18.55-23.88,39.38-23.88,5.33,0,9.91.51,13.21,1.78,1.27.51,1.52,1.27,1.52,2.54v25.15c0,1-.51,1.78-1.78,1.52a41.72,41.72,0,0,0-7.62-.5c-9.4,0-15,4.82-15,19v6.86h21.6c1.78,0,2,.76,2,1.77V232c0,1.53-.25,1.78-2,2h-21.6v94.5c0,1.27-.25,2.29-2.28,2.29H313.79a2,2,0,0,1-2.29-2.29V234Z"/></svg>